<svg width="70.000000" height="70.000000" viewBox="0 0 70 70" fill="none" xmlns="http://www.w3.org/2000/svg" xmlns:xlink="http://www.w3.org/1999/xlink">
	<desc>
			Created with Pixso.
	</desc>
	<defs/>
	<rect id="logo" width="70.000000" height="70.000000" fill="#FFFFFF" fill-opacity="0"/>
	<circle id="Ellipse 57" cx="35.000000" cy="35.000000" r="35.000000" fill="#AB0C36" fill-opacity="1.000000"/>
	<path id="Vector" d="M21.85 16.58C21.85 18.48 20.32 20.02 18.43 20.02C16.54 20.02 15.01 18.48 15.01 16.58C15.01 14.68 16.54 13.14 18.43 13.14C20.32 13.14 21.85 14.68 21.85 16.58Z" fill="#FFFEF6" fill-opacity="1.000000" fill-rule="evenodd"/>
	<path id="Vector" d="M18.46 23.65C17.5 23.65 16.19 23.6 15.63 23.6C15.35 23.6 15 23.94 15 24.3L15 56.01C15 56.64 15.51 56.98 16.3 56.98L32.5 56.98C42.45 56.98 52.65 45.99 52.65 36.15C52.65 26.31 44.8 20.86 37.61 21.69C44.56 25.91 45.8 31.36 45.69 36.15C45.57 41.46 41.64 50.16 29.03 50.16L22.45 50.16C22.17 50.16 21.91 50 21.91 49.32L21.91 24.97C21.91 24.64 22.01 24.13 21.66 23.76C21.32 23.39 19.42 23.65 18.46 23.65Z" fill="#FFFEFF" fill-opacity="1.000000" fill-rule="nonzero"/>
	<path id="Vector" d="M26.92 48.67C25.96 48.67 24.64 48.72 24.09 48.72C23.8 48.72 23.45 48.38 23.45 48.02L23.45 14.1C23.45 13.47 23.96 13.14 24.75 13.14C25.54 13.14 29.88 12.82 41.31 13.14C51.26 13.42 61.11 23.7 61.11 33.97C61.11 43.81 54.59 56.47 39.83 56.84C55.38 48.09 54.14 36.63 54.14 33.97C54.14 28.66 50.78 19.96 37.48 19.96L30.9 19.96C30.62 19.96 30.36 20.12 30.36 20.8L30.36 47.35C30.36 47.68 30.46 48.19 30.11 48.56C29.77 48.93 27.88 48.67 26.92 48.67Z" fill="#DA9096" fill-opacity="1.000000" fill-rule="nonzero"/>
</svg>
