<svg width="88.000000" height="88.000000" viewBox="0 0 88 88" fill="none" xmlns="http://www.w3.org/2000/svg" xmlns:xlink="http://www.w3.org/1999/xlink">
	<desc>
			Created with Pixso.
	</desc>
	<defs>
		<clipPath id="clip134_700">
			<rect id="calendare 3" width="30.000000" height="30.000000" transform="translate(29.000000 29.000000)" fill="white" fill-opacity="0"/>
		</clipPath>
	</defs>
	<circle id="Ellipse 39" cx="44.000000" cy="44.000000" r="44.000000" fill="#FFF5F4" fill-opacity="1.000000"/>
	<rect id="calendare 3" width="30.000000" height="30.000000" transform="translate(29.000000 29.000000)" fill="#FFFFFF" fill-opacity="0"/>
	<g clip-path="url(#clip134_700)">
		<path id="Vector" d="M33 33L39 33L39 39L33 39L33 33Z" fill="#AB0C36" fill-opacity="1.000000" fill-rule="evenodd"/>
		<path id="Vector" d="M33 41L39 41L39 47L33 47L33 41Z" fill="#AB0C36" fill-opacity="1.000000" fill-rule="evenodd"/>
		<path id="Vector" d="M41 41L47 41L47 47L41 47L41 41Z" fill="#AB0C36" fill-opacity="1.000000" fill-rule="evenodd"/>
		<path id="Vector" d="M33 49L39 49L39 55L33 55L33 49Z" fill="#AB0C36" fill-opacity="1.000000" fill-rule="evenodd"/>
		<path id="Vector" d="M41 33L47 33L47 39L41 39L41 33Z" fill="#AB0C36" fill-opacity="1.000000" fill-rule="evenodd"/>
		<path id="Vector" d="M49 33L55 33L55 39L49 39L49 33Z" fill="#AB0C36" fill-opacity="1.000000" fill-rule="evenodd"/>
		<path id="Vector" d="M52 58.5C48.41 58.5 45.5 55.58 45.5 52C45.5 48.41 48.41 45.5 52 45.5C55.58 45.5 58.5 48.41 58.5 52C58.5 55.58 55.58 58.5 52 58.5Z" stroke="#AB0C36" stroke-opacity="1.000000" stroke-width="1.000000"/>
		<path id="Vector" d="M55 41L49 41L49 45.67C49.9 45.24 50.92 45 52 45C53.07 45 54.09 45.24 55 45.67L55 41Z" fill="#AB0C36" fill-opacity="1.000000" fill-rule="evenodd"/>
		<path id="Vector" d="M45.67 49L41 49L41 55L45.67 55C45.24 54.09 45 53.07 45 52C45 50.92 45.24 49.9 45.67 49Z" fill="#AB0C36" fill-opacity="1.000000" fill-rule="evenodd"/>
		<path id="Vector" d="M50 54L52 52L52 48" stroke="#AB0C36" stroke-opacity="1.000000" stroke-width="1.000000"/>
	</g>
</svg>
