<svg width="88.000000" height="88.000000" viewBox="0 0 88 88" fill="none" xmlns="http://www.w3.org/2000/svg" xmlns:xlink="http://www.w3.org/1999/xlink">
	<desc>
			Created with Pixso.
	</desc>
	<defs>
		<clipPath id="clip134_687">
			<rect id="Frame 82" width="30.000000" height="30.000000" transform="translate(29.000000 29.000000)" fill="white" fill-opacity="0"/>
		</clipPath>
	</defs>
	<circle id="Ellipse 39" cx="44.000000" cy="44.000000" r="44.000000" fill="#FFF5F4" fill-opacity="1.000000"/>
	<g clip-path="url(#clip134_687)">
		<path id="star 1 (Traced)" d="M43.65 32.79C43.43 32.93 43.59 32.53 42.02 37.05C41.35 38.98 40.78 40.59 40.75 40.62C40.72 40.67 39.4 40.71 36.68 40.76C33.64 40.82 32.6 40.86 32.46 40.91C32.15 41.04 32.01 41.42 32.16 41.73C32.2 41.82 33.54 42.87 35.49 44.34C38.68 46.75 38.76 46.82 38.71 46.97C38.3 48.19 36.43 54.54 36.43 54.69C36.43 55.07 36.76 55.35 37.12 55.28C37.26 55.25 40.07 53.34 43.53 50.92L43.98 50.6L44.26 50.79C44.41 50.9 45.92 51.94 47.61 53.12C49.29 54.29 50.75 55.26 50.84 55.28C51.21 55.35 51.54 55.07 51.54 54.69C51.54 54.58 51.03 52.79 50.4 50.72C49.77 48.65 49.25 46.92 49.24 46.88C49.23 46.84 50.68 45.71 52.45 44.37C54.22 43.03 55.72 41.87 55.78 41.78C55.9 41.58 55.91 41.4 55.79 41.17C55.62 40.84 55.66 40.84 51.31 40.76C48.53 40.71 47.27 40.67 47.23 40.63C47.2 40.59 46.62 38.98 45.95 37.05C45.28 35.11 44.68 33.39 44.61 33.22C44.43 32.73 44.05 32.55 43.65 32.79Z" fill="#AB0C36" fill-opacity="1.000000" fill-rule="evenodd"/>
	</g>
</svg>
