<svg width="88.000000" height="88.000000" viewBox="0 0 88 88" fill="none" xmlns="http://www.w3.org/2000/svg" xmlns:xlink="http://www.w3.org/1999/xlink">
	<desc>
			Created with Pixso.
	</desc>
	<defs>
		<clipPath id="clip134_574">
			<rect id="time" width="30.000000" height="30.000000" transform="translate(29.000000 29.000000)" fill="white" fill-opacity="0"/>
		</clipPath>
	</defs>
	<circle id="Ellipse 39" cx="44.000000" cy="44.000000" r="44.000000" fill="#FFF5F4" fill-opacity="1.000000"/>
	<g clip-path="url(#clip134_574)">
		<path id="sand-clock 1 (Traced)" d="M34.87 32.63C34.58 32.75 34.4 33.02 34.4 33.35C34.4 33.6 34.52 33.81 34.74 33.97C34.86 34.06 34.95 34.07 35.78 34.08L36.68 34.1L36.68 36.42C36.68 38.93 36.7 39.11 36.94 39.62C37.01 39.76 37.14 39.99 37.24 40.12C37.34 40.25 38.26 41.07 39.31 41.96C41.4 43.74 41.43 43.78 41.43 44.3C41.43 44.83 41.42 44.84 39.33 46.62C38.29 47.5 37.38 48.3 37.29 48.4C37.21 48.5 37.07 48.72 36.98 48.9C36.7 49.47 36.68 49.6 36.68 52.18L36.68 54.5L35.78 54.52C34.95 54.53 34.86 54.54 34.74 54.63C34.28 54.96 34.28 55.56 34.74 55.9L34.87 56L44 56L53.12 56L53.25 55.9C53.71 55.56 53.71 54.96 53.25 54.63C53.13 54.54 53.04 54.53 52.21 54.52L51.31 54.5L51.31 52.37C51.31 50.06 51.29 49.86 51.05 49.35C50.99 49.21 50.86 48.99 50.76 48.86C50.66 48.73 49.72 47.88 48.54 46.87C47.41 45.9 46.45 45.06 46.41 45.01C46.07 44.58 46.08 43.99 46.43 43.56C46.46 43.53 47.41 42.7 48.54 41.73C49.71 40.73 50.66 39.87 50.76 39.74C50.86 39.61 50.99 39.39 51.05 39.25C51.29 38.75 51.31 38.54 51.31 36.24L51.31 34.1L52.21 34.08C53.04 34.07 53.13 34.06 53.25 33.97C53.71 33.64 53.71 33.04 53.25 32.7L53.12 32.61L44.05 32.6C38.09 32.59 34.94 32.6 34.87 32.63ZM49.76 36.28L49.75 38.46L49.63 38.67C49.54 38.82 49 39.31 47.53 40.58C46.45 41.52 45.45 42.39 45.31 42.53C44.9 42.96 44.6 43.71 44.6 44.3C44.6 44.9 44.91 45.64 45.34 46.09C45.48 46.24 46.47 47.11 47.53 48.02C48.6 48.93 49.51 49.75 49.57 49.83C49.63 49.92 49.7 50.06 49.72 50.15C49.75 50.25 49.77 51.15 49.77 52.41L49.77 54.51L43.99 54.51L38.22 54.51L38.23 52.14C38.24 49.81 38.24 49.77 38.34 49.59C38.48 49.35 38.62 49.21 40.48 47.64C42.18 46.21 42.29 46.11 42.55 45.71C43.17 44.78 43.09 43.5 42.35 42.62C42.24 42.49 41.42 41.76 40.53 41C38.62 39.39 38.48 39.26 38.34 39.01C38.24 38.83 38.24 38.79 38.23 36.46L38.22 34.09L44 34.09L49.77 34.09L49.76 36.28ZM43.71 44.52C43.71 45.03 43.43 45.76 43.06 46.2C42.95 46.33 42.05 47.13 41.05 47.99C40.04 48.84 39.18 49.61 39.12 49.7L39.01 49.85L39.01 51.69C39.01 53.28 39.02 53.54 39.08 53.63L39.16 53.73L44 53.73L48.83 53.73L48.91 53.63C48.97 53.54 48.98 53.29 48.98 51.87C48.98 50.23 48.98 50.22 48.87 50.06C48.81 49.98 47.89 49.15 46.81 48.23C45.74 47.31 44.75 46.43 44.61 46.28C44.19 45.83 43.86 45.03 43.86 44.47C43.86 44.35 43.83 44.3 43.79 44.3C43.73 44.3 43.72 44.36 43.71 44.52Z" fill="#AB0C36" fill-opacity="1.000000" fill-rule="evenodd"/>
	</g>
</svg>
