<svg width="30.000000" height="30.000000" viewBox="0 0 30 30" fill="none" xmlns="http://www.w3.org/2000/svg" xmlns:xlink="http://www.w3.org/1999/xlink">
	<desc>
			Created with Pixso.
	</desc>
	<defs>
		<clipPath id="clip255_427">
			<rect id="Frame 153" width="30.000000" height="30.000000" fill="white" fill-opacity="0"/>
		</clipPath>
	</defs>
	<g clip-path="url(#clip255_427)">
		<path id="flower 1 (Traced)" d="M15.57 3.87L13.8 5.64L13.92 5.79C14.26 6.24 14.72 7 14.92 7.46C15.31 8.36 15.44 9.01 15.48 10.23L15.51 11.3L15.66 11.3C15.9 11.31 16.57 11.56 16.97 11.8L17.33 12.01L17.82 11.53C18.1 11.26 18.47 10.84 18.65 10.59C20.21 8.53 20.21 5.59 18.67 3.49C18.41 3.14 17.44 2.1 17.37 2.1C17.35 2.1 16.54 2.9 15.57 3.87ZM7.54 6.83C7.56 9.44 7.56 9.46 7.71 10.01C8.17 11.69 9.22 13.03 10.71 13.82C11.36 14.17 11.36 14.17 11.48 13.81C11.71 13.1 12.21 12.42 12.84 11.97C13.26 11.66 13.92 11.37 14.31 11.32L14.57 11.29L14.54 10.28C14.52 9.46 14.48 9.18 14.36 8.7C13.81 6.61 12.16 4.96 10.07 4.41C9.59 4.29 9.31 4.25 8.5 4.23L7.52 4.2L7.54 6.83ZM20.59 4.28C20.42 4.31 20.27 4.34 20.26 4.35C20.26 4.35 20.33 4.59 20.42 4.88C20.52 5.16 20.64 5.66 20.69 5.99L20.79 6.59L21.65 6.57L22.52 6.55L22.52 5.38L22.52 4.21L21.72 4.22C21.28 4.22 20.77 4.25 20.59 4.28ZM4.24 8.24C4.24 8.88 4.31 9.63 4.37 9.7C4.38 9.71 4.57 9.65 4.79 9.57C5.14 9.45 5.66 9.33 6.37 9.22L6.59 9.19L6.59 8.34L6.59 7.49L5.41 7.49L4.24 7.49L4.24 8.24ZM20.84 7.54C20.8 7.57 20.74 7.77 20.71 7.99C20.61 8.63 20.48 9.12 20.27 9.64C19.89 10.56 19.44 11.22 18.55 12.13L18 12.7L18.21 13.05C18.45 13.44 18.71 14.12 18.71 14.37L18.72 14.54L19.73 14.51C20.95 14.47 21.6 14.33 22.49 13.88C24.05 13.11 25.16 11.73 25.61 10.02C25.73 9.57 25.77 9.27 25.79 8.48L25.82 7.49L23.37 7.5C22.02 7.5 20.88 7.52 20.84 7.54ZM5.98 10.22C4.68 10.46 3.62 11.05 2.57 12.12L2.1 12.59L3.9 14.39C5.69 16.18 5.7 16.18 5.84 16.09C7.14 15.13 8.2 14.7 9.59 14.55L9.99 14.51L9.59 14.25C9.37 14.1 8.94 13.73 8.63 13.42C7.81 12.6 7.28 11.74 6.93 10.66C6.75 10.08 6.75 10.08 5.98 10.22ZM14.33 12.27C12.84 12.67 11.92 14.21 12.3 15.67C12.69 17.17 14.23 18.1 15.7 17.72C17.2 17.33 18.13 15.79 17.75 14.33C17.35 12.81 15.8 11.88 14.33 12.27ZM24.07 14C23.13 14.75 21.89 15.26 20.6 15.42L20.06 15.48L20.46 15.75C20.68 15.89 21.11 16.26 21.42 16.57C22.24 17.39 22.77 18.25 23.12 19.33C23.21 19.64 23.31 19.84 23.37 19.85C23.51 19.88 24.49 19.69 24.89 19.56C25.82 19.25 26.66 18.71 27.47 17.87L27.94 17.4L26.21 15.66C25.26 14.71 24.44 13.91 24.39 13.88C24.32 13.84 24.24 13.87 24.07 14ZM9.2 15.56C6.69 16.01 4.76 17.94 4.34 20.44C4.28 20.75 4.24 21.32 4.24 21.74L4.24 22.49L6.69 22.49C8.03 22.49 9.17 22.47 9.2 22.45C9.24 22.42 9.31 22.15 9.36 21.85C9.61 20.34 10.22 19.17 11.44 17.91L12.05 17.28L11.83 16.94C11.6 16.56 11.34 15.87 11.33 15.62L11.33 15.46L10.5 15.47C10.04 15.47 9.46 15.51 9.2 15.56ZM18.56 16.2C18.45 16.57 18.17 17.06 17.85 17.45C17.4 18 16.4 18.58 15.75 18.67L15.48 18.7L15.51 19.71C15.54 20.92 15.69 21.57 16.13 22.47C16.91 24.02 18.28 25.13 20 25.58C20.45 25.7 20.75 25.74 21.55 25.76L22.53 25.79L22.51 23.16C22.49 20.55 22.49 20.53 22.34 19.98C21.86 18.24 20.74 16.86 19.14 16.06C18.94 15.96 18.75 15.87 18.72 15.87C18.69 15.87 18.62 16.02 18.56 16.2ZM12.03 18.68C11.02 19.72 10.52 20.67 10.3 21.92C10.18 22.64 10.22 23.73 10.39 24.43C10.67 25.5 11.33 26.59 12.29 27.53L12.68 27.91L14.21 26.39C15.06 25.55 15.86 24.75 16 24.6L16.25 24.34L16.04 24.07C15.49 23.37 15.01 22.41 14.79 21.56C14.61 20.89 14.56 20.38 14.56 19.49L14.56 18.69L14.39 18.68C14.15 18.68 13.46 18.42 13.09 18.19C12.9 18.08 12.74 17.98 12.72 17.98C12.71 17.98 12.39 18.29 12.03 18.68ZM25.25 20.42C24.88 20.55 24.35 20.67 23.68 20.77L23.46 20.8L23.46 21.65L23.46 22.49L24.64 22.49L25.82 22.49L25.79 21.51C25.77 20.97 25.74 20.48 25.71 20.41L25.66 20.29L25.25 20.42ZM8.39 23.42L7.52 23.44L7.52 24.61L7.52 25.78L8.27 25.78C8.87 25.78 9.73 25.7 9.79 25.64C9.79 25.63 9.72 25.4 9.63 25.12C9.53 24.84 9.41 24.34 9.35 24.01L9.25 23.4L8.39 23.42Z" fill="#AB0C36" fill-opacity="1.000000" fill-rule="evenodd"/>
	</g>
</svg>
