<svg width="30.000000" height="30.000000" viewBox="0 0 30 30" fill="none" xmlns="http://www.w3.org/2000/svg" xmlns:xlink="http://www.w3.org/1999/xlink">
	<desc>
			Created with Pixso.
	</desc>
	<defs>
		<clipPath id="clip115_861">
			<rect id="time" width="30.000000" height="30.000000" fill="white" fill-opacity="0"/>
		</clipPath>
	</defs>
	<g clip-path="url(#clip115_861)">
		<path id="sand-clock 1 (Traced)" d="M5.87 3.63C5.58 3.75 5.4 4.02 5.4 4.35C5.4 4.6 5.52 4.81 5.74 4.97C5.86 5.06 5.95 5.07 6.78 5.08L7.68 5.1L7.68 7.42C7.68 9.93 7.7 10.1 7.94 10.62C8.01 10.76 8.14 10.99 8.24 11.12C8.34 11.25 9.26 12.07 10.31 12.96C12.4 14.74 12.43 14.78 12.43 15.3C12.43 15.83 12.42 15.84 10.33 17.62C9.29 18.5 8.38 19.3 8.29 19.4C8.21 19.5 8.07 19.72 7.98 19.9C7.7 20.47 7.68 20.6 7.68 23.18L7.68 25.5L6.78 25.52C5.95 25.53 5.86 25.54 5.74 25.63C5.28 25.96 5.28 26.56 5.74 26.9L5.87 27L15 27L24.12 27L24.25 26.9C24.71 26.56 24.71 25.96 24.25 25.63C24.13 25.54 24.04 25.53 23.21 25.52L22.31 25.5L22.31 23.36C22.31 21.06 22.29 20.86 22.05 20.35C21.99 20.21 21.86 19.99 21.76 19.86C21.66 19.73 20.72 18.88 19.54 17.87C18.41 16.9 17.45 16.06 17.41 16.01C17.07 15.58 17.08 14.99 17.43 14.56C17.46 14.53 18.41 13.7 19.54 12.73C20.71 11.72 21.66 10.87 21.76 10.74C21.86 10.61 21.99 10.39 22.05 10.25C22.29 9.75 22.31 9.54 22.31 7.24L22.31 5.1L23.21 5.08C24.04 5.07 24.13 5.06 24.25 4.97C24.71 4.64 24.71 4.04 24.25 3.7L24.12 3.61L15.05 3.6C9.09 3.59 5.94 3.6 5.87 3.63ZM20.76 7.28L20.75 9.46L20.63 9.67C20.54 9.82 20 10.31 18.53 11.58C17.45 12.51 16.45 13.39 16.31 13.53C15.9 13.96 15.6 14.71 15.6 15.3C15.6 15.9 15.91 16.64 16.34 17.09C16.48 17.24 17.47 18.11 18.53 19.02C19.6 19.93 20.51 20.75 20.57 20.83C20.63 20.92 20.7 21.06 20.72 21.15C20.75 21.25 20.77 22.15 20.77 23.41L20.77 25.51L14.99 25.51L9.22 25.51L9.23 23.14C9.24 20.81 9.24 20.77 9.34 20.59C9.48 20.35 9.62 20.21 11.48 18.64C13.18 17.21 13.29 17.11 13.55 16.71C14.17 15.78 14.09 14.49 13.35 13.62C13.24 13.49 12.42 12.76 11.53 12C9.62 10.39 9.48 10.26 9.34 10.01C9.24 9.83 9.24 9.79 9.23 7.46L9.22 5.09L15 5.09L20.77 5.09L20.76 7.28ZM14.71 15.52C14.71 16.03 14.43 16.76 14.06 17.2C13.95 17.33 13.05 18.13 12.05 18.99C11.04 19.84 10.18 20.61 10.12 20.7L10.01 20.85L10.01 22.69C10.01 24.28 10.02 24.54 10.08 24.63L10.16 24.73L15 24.73L19.83 24.73L19.91 24.63C19.97 24.54 19.98 24.29 19.98 22.87C19.98 21.23 19.98 21.22 19.87 21.06C19.81 20.98 18.89 20.15 17.81 19.23C16.74 18.31 15.75 17.43 15.61 17.28C15.19 16.83 14.86 16.03 14.86 15.47C14.86 15.35 14.83 15.3 14.79 15.3C14.73 15.3 14.72 15.36 14.71 15.52Z" fill="#AB0C36" fill-opacity="1.000000" fill-rule="evenodd"/>
	</g>
</svg>
