<svg width="30.000000" height="30.000000" viewBox="0 0 30 30" fill="none" xmlns="http://www.w3.org/2000/svg" xmlns:xlink="http://www.w3.org/1999/xlink">
	<desc>
			Created with Pixso.
	</desc>
	<defs>
		<clipPath id="clip115_846">
			<rect id="calendare 2" width="30.000000" height="30.000000" fill="white" fill-opacity="0"/>
		</clipPath>
	</defs>
	<rect id="calendare 2" width="30.000000" height="30.000000" fill="#FFFFFF" fill-opacity="0"/>
	<g clip-path="url(#clip115_846)">
		<path id="Vector" d="M4 3.99L10 3.99L10 9.99L4 9.99L4 3.99Z" fill="#AB0C36" fill-opacity="1.000000" fill-rule="evenodd"/>
		<path id="Vector" d="M4 12L10 12L10 18L4 18L4 12Z" fill="#AB0C36" fill-opacity="1.000000" fill-rule="evenodd"/>
		<path id="Vector" d="M12 12L18 12L18 18L12 18L12 12Z" fill="#AB0C36" fill-opacity="1.000000" fill-rule="evenodd"/>
		<path id="Vector" d="M4 20L10 20L10 26L4 26L4 20Z" fill="#AB0C36" fill-opacity="1.000000" fill-rule="evenodd"/>
		<path id="Vector" d="M12 3.99L18 3.99L18 9.99L12 9.99L12 3.99Z" fill="#AB0C36" fill-opacity="1.000000" fill-rule="evenodd"/>
		<path id="Vector" d="M20 3.99L26 3.99L26 9.99L20 9.99L20 3.99Z" fill="#AB0C36" fill-opacity="1.000000" fill-rule="evenodd"/>
		<path id="Vector" d="M23 29.49C19.41 29.49 16.5 26.58 16.5 22.99C16.5 19.41 19.41 16.49 23 16.49C26.58 16.49 29.5 19.41 29.5 22.99C29.5 26.58 26.58 29.49 23 29.49Z" stroke="#AB0C36" stroke-opacity="1.000000" stroke-width="1.000000"/>
		<path id="Vector" d="M26 12L20 12L20 16.67C20.9 16.24 21.92 16 23 16C24.07 16 25.09 16.24 26 16.67L26 12Z" fill="#AB0C36" fill-opacity="1.000000" fill-rule="evenodd"/>
		<path id="Vector" d="M16.67 20L12 20L12 26L16.67 26C16.24 25.09 16 24.07 16 23C16 21.92 16.24 20.9 16.67 20Z" fill="#AB0C36" fill-opacity="1.000000" fill-rule="evenodd"/>
		<path id="Vector" d="M21 24.99L23 22.99L23 18.99" stroke="#AB0C36" stroke-opacity="1.000000" stroke-width="1.000000"/>
	</g>
</svg>
