<svg width="32.000000" height="32.000000" viewBox="0 0 32 32" fill="none" xmlns="http://www.w3.org/2000/svg" xmlns:xlink="http://www.w3.org/1999/xlink">
	<desc>
			Created with Pixso.
	</desc>
	<defs>
		<clipPath id="clip277_429">
			<rect id="Frame 157" width="32.000000" height="32.000000" fill="white" fill-opacity="0"/>
		</clipPath>
	</defs>
	<g clip-path="url(#clip277_429)">
		<path id="diet 1 (Traced)" d="M5.71 0.08C5.46 0.2 0.14 5.54 0.06 5.76C0.02 5.88 0 9.97 0 18.69C0 29.96 0.01 31.46 0.09 31.62C0.3 32.02 -0.32 31.99 9.4 31.99C19.23 31.99 18.54 32.02 18.72 31.58C18.84 31.3 18.79 31.05 18.58 30.86L18.42 30.71L9.88 30.68L1.34 30.65L1.32 18.67L1.31 6.69L3.78 6.67L6.24 6.65L6.45 6.44L6.65 6.24L6.67 3.77L6.69 1.31L14 1.31L21.31 1.31L21.31 6.45C21.31 9.29 21.33 11.69 21.35 11.8C21.43 12.22 21.88 12.46 22.26 12.28C22.67 12.08 22.65 12.42 22.65 6.16C22.65 0.76 22.65 0.45 22.54 0.29C22.48 0.2 22.34 0.1 22.23 0.06C22.1 0.01 19.57 -0.01 13.97 0C7.3 0 5.87 0.01 5.71 0.08ZM5.31 3.81L5.31 5.31L3.79 5.31L2.28 5.31L3.78 3.81C4.6 2.98 5.28 2.31 5.29 2.31C5.3 2.31 5.31 2.98 5.31 3.81ZM5.71 8.08C5.32 8.25 5.23 8.8 5.55 9.12L5.74 9.31L11.33 9.31L16.92 9.31L17.12 9.11C17.38 8.85 17.38 8.52 17.13 8.23L16.94 8.02L11.42 8.01C6.97 8 5.86 8.01 5.71 8.08ZM5.71 12.08C5.32 12.25 5.23 12.8 5.55 13.12L5.74 13.31L11.33 13.31L16.92 13.31L17.12 13.11C17.38 12.85 17.38 12.52 17.13 12.23L16.94 12.02L11.42 12.01C6.97 12 5.86 12.01 5.71 12.08ZM28.05 13.37C26.98 13.5 26.09 13.94 25.29 14.76C24.98 15.06 24.72 15.3 24.71 15.29C24.71 15.28 24.61 15.06 24.49 14.81C24.22 14.17 23.83 13.51 23.68 13.43C23.62 13.4 23.45 13.37 23.31 13.37C23.1 13.37 23.01 13.41 22.87 13.55C22.6 13.82 22.62 14.06 22.99 14.79C23.36 15.52 23.71 16.55 23.84 17.32C23.9 17.63 23.93 17.89 23.92 17.9C23.91 17.91 23.68 17.83 23.4 17.71C22.7 17.43 22.31 17.35 21.66 17.36C19.9 17.37 18.58 18.42 17.82 20.43C16.99 22.64 17.25 25.6 18.5 28.15C19.01 29.2 19.43 29.8 20.12 30.5C21.18 31.57 22.01 31.96 23.25 31.96C23.76 31.96 23.89 31.94 24.21 31.79C24.41 31.7 24.61 31.62 24.65 31.62C24.69 31.62 24.89 31.69 25.1 31.79C25.42 31.94 25.54 31.96 26.12 31.96C26.79 31.95 27.09 31.89 27.7 31.63C29.34 30.91 30.93 28.65 31.61 26.06C31.99 24.63 32.08 23.46 31.9 22.18C31.55 19.55 30.27 17.83 28.35 17.43L28 17.36L28.24 17.07C28.88 16.3 29.23 15.42 29.29 14.42C29.32 13.92 29.31 13.78 29.22 13.65C29.03 13.36 28.75 13.29 28.05 13.37ZM27.91 14.83C27.89 14.88 27.85 15.03 27.81 15.16C27.71 15.54 27.33 16.12 26.98 16.45C26.66 16.74 25.97 17.12 25.6 17.21C25.42 17.25 25.42 17.25 25.46 17.03C25.58 16.38 26.14 15.59 26.76 15.2C27.02 15.04 27.71 14.75 27.86 14.75C27.91 14.74 27.93 14.78 27.91 14.83ZM5.71 16.08C5.32 16.25 5.23 16.8 5.55 17.12L5.74 17.31L10.64 17.31L15.55 17.31L15.74 17.15C15.98 16.94 16.04 16.64 15.91 16.38C15.7 15.98 15.92 15.99 10.67 16C6.88 16 5.86 16.01 5.71 16.08ZM23.16 19.05C24.51 19.58 24.85 19.58 26.17 19.04C26.94 18.72 26.98 18.71 27.59 18.71C28.14 18.71 28.26 18.73 28.58 18.88C29.91 19.5 30.63 21.12 30.63 23.46C30.63 24.48 30.5 25.23 30.16 26.27C29.44 28.4 28.15 30.07 26.85 30.53C26.42 30.69 25.84 30.66 25.41 30.46C24.95 30.24 24.48 30.23 24 30.43C23.48 30.64 23.26 30.68 22.88 30.61C21.44 30.38 19.97 28.66 19.18 26.31C18.83 25.26 18.74 24.76 18.7 23.71C18.64 21.9 19.05 20.44 19.87 19.53C20.45 18.9 20.98 18.67 21.81 18.7C22.27 18.72 22.44 18.77 23.16 19.05ZM5.71 20.08C5.32 20.25 5.23 20.8 5.55 21.12L5.74 21.31L10 21.31L14.25 21.31L14.44 21.12C14.78 20.78 14.66 20.21 14.23 20.06C13.93 19.95 5.96 19.97 5.71 20.08ZM5.71 24.08C5.32 24.25 5.23 24.8 5.55 25.12L5.74 25.31L10 25.31L14.25 25.31L14.44 25.12C14.78 24.78 14.66 24.21 14.23 24.06C13.93 23.95 5.96 23.97 5.71 24.08Z" fill="#AB0C36" fill-opacity="1.000000" fill-rule="evenodd"/>
	</g>
</svg>
