<svg width="32.000000" height="32.000000" viewBox="0 0 32 32" fill="none" xmlns="http://www.w3.org/2000/svg" xmlns:xlink="http://www.w3.org/1999/xlink">
	<desc>
			Created with Pixso.
	</desc>
	<defs>
		<clipPath id="clip277_430">
			<rect id="Frame 158" width="32.000000" height="32.000000" fill="white" fill-opacity="0"/>
		</clipPath>
	</defs>
	<g clip-path="url(#clip277_430)">
		<path id="face-mask 1 (Traced)" d="M13.03 0.05C10.78 0.38 7.94 2.5 5.98 5.31C4.92 6.82 4.21 8.38 3.97 9.71C3.93 9.91 3.88 10.36 3.84 10.7C3.81 11.05 3.74 11.57 3.69 11.86C3.46 13.09 3.3 15.53 3.4 16.32C3.57 17.67 4.86 20.44 6.04 22.02C6.39 22.48 6.43 22.57 6.62 23.3C7.06 24.98 7.62 26.36 8.2 27.16C10.72 30.7 13.44 32.31 16.25 31.92C18.35 31.63 20.32 30.24 22.26 27.69C22.58 27.28 22.94 26.76 23.06 26.55C23.59 25.64 24.19 24.02 24.37 23.01C24.42 22.71 24.5 22.41 24.54 22.36C24.59 22.3 24.78 22.05 24.97 21.79C25.6 20.95 26.08 20.08 27.15 17.88C28.26 15.58 28.39 15.26 28.56 14.42C28.7 13.74 28.66 12.35 28.47 11.73C27.79 9.4 25.88 7.26 22.33 4.82C21.88 4.51 21.85 4.47 21.72 4.1C21.4 3.13 20.64 2.17 19.72 1.55C19.21 1.2 18.33 0.79 17.62 0.56C16.24 0.11 14.18 -0.12 13.03 0.05ZM15 1.39C16.15 1.48 17.43 1.83 18.4 2.33C20.06 3.19 20.79 4.45 20.59 6.11C20.42 7.52 19.86 8.68 18.75 9.91C18.16 10.56 16.76 11.63 15.43 12.44C14.44 13.04 12.78 13.99 12.06 14.36C10.18 15.33 8.54 16.58 7.71 17.66C7.31 18.19 6.89 19.06 6.71 19.7C6.64 19.98 6.56 20.25 6.55 20.29C6.49 20.5 5.38 18.3 4.98 17.2C4.77 16.62 4.76 16.52 4.73 15.68C4.69 14.45 4.9 12.15 5.09 11.64C5.15 11.48 8.32 9.6 10.53 8.41C12.12 7.55 15.87 6.01 17.26 5.64C17.93 5.46 18.07 5.36 18.15 5.04C18.23 4.66 18.03 4.33 17.68 4.26C17.12 4.16 15.03 4.89 11.9 6.28C10.28 7 9.45 7.44 6.74 9.03C6.01 9.45 5.39 9.8 5.37 9.8C5.25 9.8 5.67 8.57 6.06 7.77C7.05 5.74 8.75 3.78 10.61 2.53C11.34 2.03 11.8 1.79 12.44 1.58C13.23 1.31 13.56 1.29 15 1.39ZM22.86 6.85C25.14 8.57 26.54 10.2 27.08 11.77C27.54 13.12 27.4 14.37 26.62 15.93C26.43 16.3 26.03 17.14 25.71 17.81C25.08 19.15 24.4 20.39 24.34 20.32C24.32 20.29 24.25 20.07 24.19 19.84C24.02 19.17 23.64 18.35 23.24 17.79C22.43 16.66 20.78 15.38 18.96 14.45C18.33 14.13 16.91 13.32 16.82 13.24C16.79 13.21 16.97 13.05 17.22 12.87C19 11.68 20.34 10.3 21.14 8.86C21.41 8.38 21.76 7.33 21.85 6.74C21.89 6.46 21.96 6.24 21.99 6.24C22.02 6.24 22.41 6.51 22.86 6.85ZM16.46 14.59C17 14.9 17.77 15.33 18.18 15.55C19.59 16.29 20.95 17.22 21.6 17.9C22.45 18.79 22.86 19.66 23.06 20.95C23.24 22.14 23.16 22.79 22.7 24.1C22.33 25.16 21.92 25.94 21.28 26.78C19.27 29.44 17.48 30.62 15.43 30.62C13.85 30.62 12.49 29.95 10.98 28.41C10.05 27.47 9.28 26.46 8.87 25.64C8.51 24.91 8.07 23.66 7.83 22.66C7.7 22.08 7.69 22.01 7.76 21.31C8.02 18.76 9.24 17.36 12.9 15.42C13.4 15.16 14.17 14.73 14.62 14.47C15.06 14.21 15.44 14 15.46 14.01C15.48 14.02 15.93 14.28 16.46 14.59Z" fill="#AB0C36" fill-opacity="1.000000" fill-rule="evenodd"/>
	</g>
</svg>
