<svg width="32.000000" height="32.000000" viewBox="0 0 32 32" fill="none" xmlns="http://www.w3.org/2000/svg" xmlns:xlink="http://www.w3.org/1999/xlink">
	<desc>
			Created with Pixso.
	</desc>
	<defs>
		<clipPath id="clip277_428">
			<rect id="Frame 156" width="32.000000" height="32.000000" fill="white" fill-opacity="0"/>
		</clipPath>
	</defs>
	<g clip-path="url(#clip277_428)">
		<path id="lotus 1 (Traced)" d="M15.52 3.68C15.06 3.98 14 4.95 13.42 5.6C11.89 7.32 10.86 9.15 10.28 11.23C10.06 12 9.84 13.24 9.84 13.68C9.84 13.85 9.81 14 9.77 14.03C9.74 14.05 9.53 13.96 9.32 13.83C8.48 13.31 7.25 12.77 6.21 12.46C4.77 12.03 3.46 11.84 1.77 11.84C0.01 11.84 0.05 11.79 0.06 13.64C0.06 15.37 0.23 16.52 0.68 18.03C1.37 20.31 2.59 22.31 4.38 24.07C6.83 26.5 9.89 27.97 13.33 28.4C14.32 28.53 17.73 28.53 18.71 28.4C23.58 27.8 27.8 25 30.2 20.78C30.83 19.68 31.42 18.08 31.7 16.71C31.92 15.66 31.98 14.96 31.99 13.64C31.99 11.79 32.03 11.84 30.27 11.84C28.56 11.84 27.25 12.03 25.77 12.48C24.76 12.79 23.53 13.34 22.55 13.93L22.24 14.11L22.16 13.38C21.81 10.08 20.21 7.01 17.58 4.58C16.33 3.43 16.06 3.32 15.52 3.68ZM16.98 5.95C18.29 7.24 19.17 8.49 19.85 10C20.44 11.34 20.82 12.97 20.85 14.37L20.87 15.09L20.1 15.84C18.43 17.45 17.14 19.39 16.34 21.51C16.18 21.91 16.04 22.24 16.02 22.24C16.01 22.24 15.91 22.03 15.81 21.76C14.92 19.4 13.68 17.5 11.93 15.81L11.15 15.07L11.15 14.62C11.15 11.82 12.38 8.81 14.45 6.53C14.91 6.03 15.96 5.06 16.04 5.06C16.06 5.06 16.49 5.46 16.98 5.95ZM2.99 13.28C6.13 13.47 9.45 15.08 11.61 17.46C13.9 19.99 15.12 22.93 15.31 26.36L15.36 27.14L14.52 27.1C10.04 26.88 5.96 24.57 3.52 20.86C2.52 19.34 1.8 17.37 1.56 15.52C1.45 14.65 1.37 13.34 1.43 13.25C1.46 13.2 1.62 13.19 1.92 13.21C2.17 13.23 2.65 13.26 2.99 13.28ZM30.6 14C30.51 18.98 27.69 23.37 23.12 25.62C21.3 26.52 19.48 27 17.51 27.1L16.69 27.14L16.73 26.36C16.82 24.8 17.07 23.55 17.56 22.2C19.09 17.99 22.54 14.76 26.67 13.68C27.71 13.41 28.45 13.3 29.49 13.25C30.01 13.22 30.47 13.2 30.52 13.21C30.6 13.21 30.61 13.34 30.6 14Z" fill="#AB0C36" fill-opacity="1.000000" fill-rule="evenodd"/>
	</g>
</svg>
