<svg width="31.500244" height="32.005859" viewBox="0 0 31.5002 32.0059" fill="none" xmlns="http://www.w3.org/2000/svg" xmlns:xlink="http://www.w3.org/1999/xlink">
	<desc>
			Created with Pixso.
	</desc>
	<defs/>
	<path id="hand-cream 1 (Traced)" d="M21.55 0.25C20.86 1.01 18.77 3.79 18.7 4.06C18.62 4.39 19.01 4.75 19.33 4.63C19.42 4.6 19.6 4.42 19.73 4.24C21.09 2.39 21.91 1.34 21.99 1.34C22.06 1.34 22.92 2.42 23.69 3.47C25.3 5.66 26.33 7.44 26.78 8.82C27.02 9.52 27.03 10.52 26.82 11.28C26.1 13.8 23.6 15.39 21.1 14.91C18.85 14.48 17.17 12.58 17.02 10.28C16.97 9.64 17.09 9.07 17.43 8.22C17.53 7.96 17.62 7.66 17.62 7.57C17.62 7.23 17.13 6.99 16.85 7.2C16.71 7.31 16.4 8.01 16.21 8.67C15.59 10.8 16.49 13.34 18.37 14.76C18.89 15.16 19.89 15.65 20.53 15.81C23.2 16.51 26.07 15.19 27.34 12.69C27.72 11.93 28 10.83 28 10.02C28 8.7 27.21 6.88 25.59 4.44C24.67 3.06 22.89 0.72 22.33 0.14C22.1 -0.09 21.83 -0.05 21.55 0.25ZM17.75 5.5C17.46 5.78 17.67 6.31 18.05 6.31C18.33 6.31 18.44 6.25 18.53 6.04C18.62 5.82 18.55 5.53 18.37 5.44C18.18 5.34 17.88 5.37 17.75 5.5ZM25.28 9.51C25.07 9.62 25 9.76 25 10.01C25 10.8 24.65 11.55 23.99 12.2C23.71 12.48 23.5 12.74 23.5 12.81C23.5 13.03 23.63 13.24 23.82 13.32C24.08 13.43 24.31 13.3 24.82 12.79C25.5 12.1 25.99 10.96 25.99 10.06C25.99 9.76 25.92 9.63 25.7 9.51C25.53 9.42 25.44 9.42 25.28 9.51ZM21.65 13.15C21.34 13.46 21.56 14 22 14C22.25 14 22.5 13.76 22.5 13.5C22.5 13.24 22.25 13 22 13C21.87 13 21.75 13.06 21.65 13.15ZM5.12 15.36C3.88 15.49 2.81 15.73 1.26 16.22C0.12 16.59 0 16.67 0 17.02C0 17.23 0.24 17.5 0.44 17.5C0.51 17.5 1.04 17.35 1.61 17.16C2.84 16.76 3.8 16.54 4.87 16.41C5.76 16.3 5.9 16.24 5.99 15.99C6.07 15.77 5.99 15.55 5.8 15.41C5.66 15.32 5.57 15.31 5.12 15.36ZM7.19 15.46C6.77 15.9 7.34 16.57 7.82 16.19C8.03 16.03 8.08 15.8 7.97 15.57C7.81 15.27 7.42 15.21 7.19 15.46ZM9.33 15.63C9.16 15.7 9 15.93 9 16.11C9 16.36 9.24 16.53 9.9 16.71C11.14 17.06 12.03 17.53 13.21 18.42C15.27 19.99 15.28 20 15.51 20C15.9 20 16.12 19.58 15.9 19.27C15.85 19.2 15.37 18.8 14.83 18.4C14.3 17.99 13.69 17.53 13.49 17.37C12.63 16.71 11.4 16.11 10.31 15.79C9.56 15.58 9.48 15.57 9.33 15.63ZM23.53 17.42C23.08 17.52 22.74 17.68 22.32 18C21.82 18.37 19.03 20.37 18.87 20.47C18.82 20.5 18.17 20.63 17.43 20.75L16.09 20.98L15.29 20.58C12.35 19.12 9.67 18.14 8.3 18.02C7.84 17.99 7.81 17.99 7.66 18.15C7.45 18.35 7.44 18.64 7.64 18.84C7.75 18.95 7.88 18.99 8.25 19.02C9.45 19.12 12.15 20.14 14.9 21.52L15.9 22.02L17.54 21.75L19.18 21.48L20.89 20.27C21.82 19.6 22.73 18.94 22.91 18.81C23.26 18.53 23.66 18.38 23.98 18.38C24.22 18.38 24.68 18.5 24.68 18.56C24.68 18.67 22.7 20.53 21.34 21.7L19.78 23.03L17.5 23.54C15.03 24.09 15 24.11 15 24.51C15 24.73 15.24 25 15.45 25C15.52 25 16.63 24.76 17.91 24.48L20.23 23.96L22.13 22.33C23.17 21.43 24.47 20.25 25.01 19.7C25.88 18.82 26 18.69 26 18.5C26 18.14 25.36 17.66 24.65 17.47C24.3 17.38 23.8 17.36 23.53 17.42ZM26.87 19.38C26.32 19.51 25.93 19.7 25.84 19.88C25.7 20.14 25.72 20.24 25.93 20.45C26.15 20.66 26.22 20.66 26.84 20.44C27.41 20.23 28.09 20.28 28.66 20.57C28.89 20.69 29.09 20.81 29.1 20.84C29.11 20.88 27.52 21.75 25.57 22.79C22.74 24.3 21.51 24.91 19.46 25.84L16.89 27L15.5 27L14.12 27L8.86 24.5L3.61 22L1.96 22L0.3 22L0.15 22.15C-0.05 22.36 -0.05 22.64 0.15 22.85L0.3 23L1.84 23L3.38 23L8.63 25.5L13.88 28L14.65 28L15.42 28L21.67 30C25.1 31.1 27.97 32 28.04 32C28.25 32 28.43 31.8 28.56 31.42C28.81 30.71 28.66 29.8 28.21 29.18C27.82 28.66 27.48 28.45 26.3 28.07C25.44 27.79 25.29 27.79 25.1 28.07C24.81 28.48 25.05 28.72 26.07 29.06C26.97 29.36 27.19 29.49 27.46 29.86C27.6 30.07 27.65 30.21 27.67 30.51C27.7 30.86 27.69 30.89 27.58 30.85C27.49 30.81 18.39 27.89 17.93 27.75C17.79 27.71 17.8 27.69 18.12 27.55C18.31 27.46 19.42 26.95 20.59 26.42C22.18 25.7 23.69 24.94 26.5 23.44C28.58 22.33 30.33 21.37 30.39 21.3C30.61 21.04 30.53 20.82 30.03 20.33C29.52 19.83 28.95 19.51 28.32 19.38C27.94 19.3 27.19 19.3 26.87 19.38ZM27.64 23.5C27.47 23.57 27.31 23.8 27.31 23.97C27.31 24.05 27.37 24.18 27.44 24.27C27.56 24.43 27.59 24.44 28.17 24.43C28.91 24.42 29.35 24.53 29.8 24.86C29.97 24.99 30.12 25.11 30.12 25.14C30.12 25.2 30.28 25.16 26.06 26.15C21.91 27.13 22 27.1 22 27.51C22 27.73 22.24 28 22.45 28C22.52 28 24.54 27.54 26.93 26.97C31.61 25.87 31.5 25.91 31.5 25.5C31.5 25.41 31.39 25.17 31.26 24.96C30.82 24.29 30.13 23.78 29.31 23.54C28.95 23.43 27.88 23.41 27.64 23.5Z" fill="#AB0C36" fill-opacity="1.000000" fill-rule="evenodd"/>
</svg>
