<svg width="32.000000" height="32.000000" viewBox="0 0 32 32" fill="none" xmlns="http://www.w3.org/2000/svg" xmlns:xlink="http://www.w3.org/1999/xlink">
	<desc>
			Created with Pixso.
	</desc>
	<defs>
		<clipPath id="clip277_445">
			<rect id="Frame 162" width="32.000000" height="32.000000" fill="white" fill-opacity="0"/>
		</clipPath>
	</defs>
	<g clip-path="url(#clip277_445)">
		<path id="weather 1 (Traced)" d="M28.59 2.74L25.84 5.49L25.48 5.16C24.82 4.56 24.06 4.2 23.12 4.05C22.69 3.99 22.31 4 21.55 4.1L21.26 4.13L20.7 3.62C19.55 2.56 18.4 1.96 16.9 1.64C16.54 1.56 16.13 1.53 15.43 1.53C14.6 1.54 14.37 1.56 13.81 1.7C12.42 2.04 11.33 2.64 10.27 3.63C9.89 3.98 9.86 4 9.54 4C8.77 4 7.83 4.25 7.2 4.63C6.5 5.05 5.7 5.94 5.41 6.62C5.29 6.92 5.16 7.02 4.6 7.2C3.94 7.41 3.49 7.7 3.02 8.19C1.07 10.26 2.09 13.63 4.9 14.34C5.16 14.41 5.59 14.43 6.38 14.43L7.49 14.43L7.49 15.02C7.49 15.52 7.51 15.63 7.62 15.77C7.77 15.96 8.08 15.99 8.28 15.84C8.38 15.77 8.4 15.66 8.43 15.11L8.46 14.46L10.47 14.45L12.48 14.43L12.5 15.05C12.53 15.78 12.61 15.93 12.99 15.93C13.34 15.93 13.39 15.82 13.43 15.1L13.46 14.46L15.13 14.45C16.05 14.44 16.81 14.45 16.81 14.48C16.81 14.5 16.05 15.28 15.14 16.2L13.47 17.86L13.33 17.71C13.15 17.51 12.81 17.5 12.64 17.69C12.55 17.79 12.52 17.94 12.5 18.33L12.48 18.84L11.75 19.57C11.35 19.98 11 20.31 10.98 20.31C10.95 20.31 10.93 20.2 10.93 20.06C10.93 19.74 10.76 19.56 10.47 19.56C10.1 19.56 10.03 19.71 10 20.58L9.98 21.34L4.99 26.34C-0.43 31.76 -0.2 31.5 0.15 31.84C0.49 32.19 0.17 32.48 6.37 26.27L12.1 20.54L12.44 20.79C13.51 21.59 14.63 21.95 16.02 21.95C16.7 21.95 16.94 21.92 17.46 21.78C19.59 21.23 21.22 19.59 21.78 17.46C21.92 16.94 21.95 16.7 21.95 16.03C21.95 14.62 21.59 13.51 20.79 12.44L20.54 12.11L22.33 10.31C23.89 8.75 24.12 8.5 24.12 8.33C24.12 8.09 23.89 7.87 23.65 7.87C23.49 7.87 23.07 8.26 20.65 10.68L17.83 13.5L11.46 13.48L5.08 13.46L4.58 13.22C2.2 12.04 2.48 8.79 5.03 8.04C5.73 7.83 5.93 7.66 6.32 6.91C6.93 5.74 8.01 5.04 9.33 4.96C10.21 4.9 10.31 4.86 10.89 4.33C12.36 2.98 14.03 2.34 15.83 2.45C17.43 2.55 18.88 3.19 20.09 4.34C20.79 5.01 20.85 5.03 21.52 5C22.78 4.95 23.14 4.97 23.56 5.11C24.07 5.28 24.5 5.53 24.89 5.87L25.18 6.13L24.87 6.47C24.51 6.85 24.47 7.04 24.71 7.28C25.05 7.62 24.93 7.72 28.6 4.04C32.28 0.37 32.18 0.49 31.84 0.15C31.51 -0.18 31.57 -0.23 28.59 2.74ZM24.61 11.92C23.56 12.36 22.65 12.75 22.6 12.8C22.45 12.92 22.46 13.32 22.61 13.46C22.67 13.51 22.81 13.56 22.91 13.56C23.18 13.56 26.87 12.03 27.01 11.86C27.07 11.79 27.12 11.66 27.12 11.58C27.12 11.39 26.86 11.12 26.67 11.12C26.59 11.12 25.66 11.48 24.61 11.92ZM20.11 13.09C20.39 13.48 20.77 14.32 20.9 14.84C21.05 15.43 21.05 16.56 20.9 17.15C20.64 18.2 19.97 19.25 19.14 19.92C18.65 20.32 17.78 20.75 17.15 20.91C16.56 21.05 15.43 21.05 14.84 20.91C14.35 20.79 13.25 20.27 12.96 20.03L12.77 19.87L16.3 16.34C18.25 14.4 19.85 12.81 19.87 12.81C19.89 12.81 20 12.94 20.11 13.09ZM23.18 15.68C22.91 15.95 23.09 16.39 23.5 16.46C23.62 16.49 25.06 16.49 26.7 16.48L29.69 16.46L29.84 16.29C30.03 16.07 30.03 15.94 29.86 15.72L29.73 15.56L26.52 15.56C23.39 15.56 23.3 15.56 23.18 15.68ZM5.12 16.22C5.01 16.36 4.99 16.47 4.99 17C4.99 17.55 5.01 17.63 5.13 17.77C5.34 18 5.6 18.01 5.81 17.81C5.91 17.7 5.93 17.6 5.93 17C5.93 16.39 5.91 16.29 5.81 16.18C5.62 16 5.28 16.02 5.12 16.22ZM10.12 16.22C10.01 16.36 9.99 16.47 9.99 17C9.99 17.55 10.01 17.63 10.14 17.78C10.32 18 10.66 18.01 10.82 17.8C10.91 17.69 10.93 17.54 10.93 16.99C10.93 16.39 10.91 16.29 10.81 16.18C10.62 16 10.28 16.02 10.12 16.22ZM7.62 17.72C7.51 17.86 7.49 17.97 7.49 18.5C7.49 19.05 7.51 19.13 7.64 19.28C7.83 19.5 8.15 19.52 8.31 19.31C8.41 19.19 8.43 19.06 8.43 18.49C8.43 17.89 8.41 17.79 8.31 17.68C8.12 17.5 7.78 17.52 7.62 17.72ZM22.6 18.55C22.46 18.7 22.46 19.08 22.6 19.2C22.75 19.33 26.51 20.87 26.68 20.87C26.86 20.87 27.12 20.6 27.12 20.41C27.12 20.33 27.07 20.2 27.01 20.13C26.87 19.96 23.17 18.43 22.9 18.43C22.79 18.43 22.66 18.48 22.6 18.55ZM5.12 19.72C5.01 19.86 4.99 19.98 4.99 20.47C4.99 20.79 5.02 21.12 5.06 21.21C5.21 21.52 5.7 21.55 5.86 21.25C5.9 21.18 5.93 20.83 5.93 20.47C5.93 19.89 5.91 19.79 5.81 19.68C5.62 19.5 5.28 19.52 5.12 19.72ZM20.97 20.99C20.91 21.05 20.87 21.2 20.87 21.31C20.87 21.51 21.02 21.68 22.85 23.51C23.95 24.6 24.89 25.5 24.95 25.5C25 25.5 25.12 25.46 25.2 25.43C25.36 25.36 25.49 25.13 25.49 24.95C25.49 24.89 24.6 23.95 23.51 22.86C21.64 20.98 21.51 20.87 21.3 20.87C21.16 20.87 21.04 20.91 20.97 20.99ZM7.62 21.23C7.5 21.37 7.49 21.46 7.51 21.74C7.55 22.27 7.9 22.47 8.27 22.18C8.41 22.06 8.43 22 8.43 21.68C8.43 21.23 8.3 21.06 7.97 21.06C7.81 21.06 7.72 21.1 7.62 21.23ZM12.79 22.61C12.66 22.76 11.12 26.51 11.12 26.68C11.12 26.86 11.39 27.12 11.58 27.12C11.66 27.12 11.79 27.07 11.86 27.01C12.03 26.86 13.56 23.17 13.56 22.9C13.56 22.75 13.51 22.66 13.42 22.59C13.23 22.46 12.91 22.47 12.79 22.61ZM18.57 22.59C18.47 22.66 18.43 22.75 18.43 22.9C18.43 23.17 19.95 26.86 20.13 27.01C20.2 27.07 20.32 27.12 20.41 27.12C20.6 27.12 20.87 26.86 20.87 26.68C20.87 26.51 19.32 22.76 19.19 22.61C19.08 22.47 18.75 22.46 18.57 22.59ZM5.12 23.22C5.02 23.35 4.99 23.48 4.99 23.81C4.99 24.33 5.13 24.56 5.47 24.56C5.83 24.56 5.93 24.39 5.93 23.82C5.93 23.39 5.91 23.31 5.79 23.19C5.58 23 5.29 23.01 5.12 23.22ZM15.68 23.18C15.62 23.25 15.55 23.42 15.52 23.57C15.5 23.72 15.49 25.16 15.5 26.77L15.52 29.69L15.7 29.84C15.92 30.04 16.06 30.04 16.29 29.84L16.46 29.69L16.48 26.77C16.49 25.16 16.48 23.72 16.46 23.57C16.41 23.24 16.24 23.06 15.99 23.06C15.89 23.06 15.75 23.11 15.68 23.18Z" fill="#AB0C36" fill-opacity="1.000000" fill-rule="evenodd"/>
	</g>
</svg>
