<svg width="32.000000" height="32.000000" viewBox="0 0 32 32" fill="none" xmlns="http://www.w3.org/2000/svg" xmlns:xlink="http://www.w3.org/1999/xlink">
	<desc>
			Created with Pixso.
	</desc>
	<defs>
		<clipPath id="clip277_433">
			<rect id="Frame 161" width="32.000000" height="32.000000" fill="white" fill-opacity="0"/>
		</clipPath>
	</defs>
	<g clip-path="url(#clip277_433)">
		<path id="clock (1) 1 (Traced)" d="M15.02 3.02C13.09 3.2 11.66 3.61 10.03 4.44C8.11 5.41 6.39 6.96 5.13 8.83C4.6 9.62 3.95 10.96 3.63 11.9C3.38 12.66 3.18 13.53 3.06 14.39C2.97 14.99 2.97 17 3.06 17.59C3.27 19.09 3.67 20.4 4.29 21.66C4.99 23.08 5.67 24.04 6.8 25.17C7.92 26.28 8.89 26.98 10.26 27.65C11.22 28.12 11.84 28.35 12.8 28.59C15.35 29.23 17.9 29.11 20.38 28.23C21.13 27.96 22.45 27.31 23.12 26.86C24.64 25.85 26.04 24.42 27.03 22.85C27.4 22.28 27.99 21.06 28.23 20.38C29.42 17.02 29.22 13.41 27.65 10.26C27.01 8.98 26.31 7.99 25.32 6.96C24.22 5.83 23.14 5.04 21.7 4.33C20.2 3.59 18.79 3.19 17.13 3.04C16.61 2.99 15.43 2.98 15.02 3.02ZM17.42 4.16C22.03 4.73 25.9 7.93 27.34 12.37C27.98 14.35 28.08 16.55 27.62 18.6C27.25 20.28 26.41 22.02 25.3 23.42C24.93 23.9 23.89 24.94 23.42 25.31C21.66 26.69 19.59 27.55 17.37 27.84C16.23 27.98 14.58 27.89 13.38 27.62C12.18 27.36 10.76 26.78 9.73 26.14C8.69 25.49 7.36 24.32 6.66 23.42C5.27 21.66 4.41 19.61 4.13 17.38C4.05 16.74 4.05 15.25 4.13 14.6C4.34 12.91 4.97 11.13 5.86 9.7C6.72 8.31 8.17 6.83 9.54 5.96C10.37 5.43 11.38 4.96 12.37 4.64C13.27 4.35 14.13 4.19 15.32 4.08C15.66 4.05 16.94 4.1 17.42 4.16ZM15.74 7.39C15.41 7.55 15.42 7.37 15.42 11.92C15.42 14.68 15.44 16.08 15.48 16.18C15.54 16.34 21.4 22.24 21.67 22.4C22.08 22.66 22.61 22.25 22.46 21.78C22.44 21.71 21.1 20.33 19.48 18.71L16.54 15.76L16.54 11.78C16.54 7.37 16.55 7.55 16.21 7.38C16 7.29 15.95 7.29 15.74 7.39Z" fill="#AB0C36" fill-opacity="1.000000" fill-rule="evenodd"/>
	</g>
</svg>
